<svg viewBox="0 0 128 128" xmlns="http://www.w3.org/2000/svg" xmlns:xlink="http://www.w3.org/1999/xlink">
  <defs>
    <linearGradient x1="87.1%" y1="88.7%" x2="19.7%" y2="19.1%" id="b">
      <stop stop-color="#9FFF9B" offset="0%"/>
      <stop stop-color="#61E7B5" offset="92.4%"/>
      <stop stop-color="#49DFBF" offset="100%"/>
    </linearGradient>
    <path d="M87 102a17.7 17.7 0 0 1-19-18V71L71 83 82.9 81a1.5 1.5 0 0 0 1.1-2.5L55.7 48.8a1 1 0 0 0-1.7.7V84c0 14.3 8 24.3 24.1 30a1 1 0 0 1-.3 2h-33a15 15 0 0 1-15-13.4L24 48.7a6 6 0 0 1 1.8-5l28.3-27.3a12 12 0 0 1 9.4-3.4l30.6 2.8a12 12 0 0 1 10.9 12V85A17.4 17.4 0 0 1 87 102z" id="a"/>
  </defs>
  <g fill="none" fill-rule="evenodd">
    <path d="M68 71v12.8l14.8-2.7a1 1 0 0 0 .3-1.9L68 71z" fill-opacity=".4" fill="#86F5A6"/>
    <mask id="c" fill="#fff">
      <use xlink:href="#a"/>
    </mask>
    <use fill="url(#b)" xlink:href="#a"/>
    <path d="M61.3 13c-3.7.5-2.6 2.8-2.5 3.3 3 9.3 1.9 15.4-3.5 18.3C51 37 40.5 36.2 26.8 44.8c-1.8 1.1-2.6 3.9-2.4 8.3l-.7-5.3c0-1.6.2-2.6.7-3l31-31.8h5.9z" fill="#D6FFF6" mask="url(#c)"/>
  </g>
</svg>
